<svg width="96" height="96" viewBox="0 0 96 96" fill="none" xmlns="http://www.w3.org/2000/svg">
<path d="M13.9961 56.2637C12.8828 56.2637 11.903 56.1562 11.0566 55.9414C10.2168 55.7266 9.43555 55.4596 8.71289 55.1406V51.6836H9.04492C9.77409 52.3021 10.5781 52.7773 11.457 53.1094C12.3359 53.4414 13.1888 53.6074 14.0156 53.6074C14.224 53.6074 14.4974 53.5846 14.8359 53.5391C15.181 53.4935 15.4577 53.4219 15.666 53.3242C15.9199 53.2135 16.1348 53.0605 16.3105 52.8652C16.4863 52.6634 16.5742 52.3997 16.5742 52.0742C16.5742 51.7096 16.431 51.4134 16.1445 51.1855C15.8581 50.9577 15.5163 50.7917 15.1191 50.6875C14.6243 50.5573 14.0938 50.4336 13.5273 50.3164C12.9674 50.1992 12.4434 50.056 11.9551 49.8867C10.8288 49.4896 10.0215 48.9557 9.5332 48.2852C9.04492 47.6146 8.80078 46.7747 8.80078 45.7656C8.80078 44.4049 9.37695 43.3047 10.5293 42.4648C11.6816 41.6185 13.1204 41.1953 14.8457 41.1953C15.7116 41.1953 16.571 41.2832 17.4238 41.459C18.2832 41.6348 19.0514 41.8724 19.7285 42.1719V45.4922H19.4062C18.8659 45.0299 18.2051 44.6393 17.4238 44.3203C16.6491 44.0013 15.8516 43.8418 15.0312 43.8418C14.7122 43.8418 14.4258 43.8646 14.1719 43.9102C13.918 43.9557 13.651 44.0436 13.3711 44.1738C13.1432 44.278 12.9447 44.4342 12.7754 44.6426C12.6126 44.8444 12.5312 45.0723 12.5312 45.3262C12.5312 45.6973 12.6615 45.9935 12.9219 46.2148C13.1888 46.4297 13.6999 46.625 14.4551 46.8008C14.9434 46.9115 15.4121 47.0189 15.8613 47.123C16.3171 47.2272 16.8021 47.3704 17.3164 47.5527C18.3255 47.9173 19.0742 48.4089 19.5625 49.0273C20.0573 49.6393 20.3047 50.4499 20.3047 51.459C20.3047 52.9043 19.735 54.0664 18.5957 54.9453C17.4629 55.8242 15.9297 56.2637 13.9961 56.2637ZM25.4023 56H21.9844V45.0332H25.4023V56ZM25.5 43.4707H21.8867V40.8047H25.5V43.4707ZM33.6348 56.293C31.5645 56.293 29.9759 55.7982 28.8691 54.8086C27.7689 53.819 27.2188 52.4095 27.2188 50.5801C27.2188 48.7897 27.7331 47.3607 28.7617 46.293C29.7904 45.2253 31.2292 44.6914 33.0781 44.6914C34.7578 44.6914 36.0208 45.1439 36.8672 46.0488C37.7135 46.9538 38.1367 48.2493 38.1367 49.9355V51.166H30.6465C30.679 51.6738 30.7865 52.1003 30.9688 52.4453C31.151 52.7839 31.3919 53.054 31.6914 53.2559C31.9844 53.4577 32.3262 53.6042 32.7168 53.6953C33.1074 53.7799 33.5339 53.8223 33.9961 53.8223C34.3932 53.8223 34.7839 53.7799 35.168 53.6953C35.5521 53.6042 35.9036 53.487 36.2227 53.3438C36.5026 53.2201 36.7598 53.0866 36.9941 52.9434C37.235 52.8001 37.4303 52.6732 37.5801 52.5625H37.9414V55.3848C37.6615 55.4954 37.4043 55.5996 37.1699 55.6973C36.9421 55.7884 36.6263 55.8828 36.2227 55.9805C35.8516 56.0781 35.4674 56.153 35.0703 56.2051C34.6797 56.2637 34.2012 56.293 33.6348 56.293ZM34.7676 49.1055C34.748 48.3828 34.5788 47.8327 34.2598 47.4551C33.9473 47.0775 33.4655 46.8887 32.8145 46.8887C32.1504 46.8887 31.6296 47.0872 31.252 47.4844C30.8809 47.8815 30.6758 48.4219 30.6367 49.1055H34.7676ZM50.1289 45.0332L44.5918 60.0234H40.9199L42.5801 55.7363L38.5566 45.0332H42.1504L44.4551 51.9082L46.6133 45.0332H50.1289ZM61.6035 56H58.1855V54.7891C57.5931 55.2839 57.0495 55.6615 56.5547 55.9219C56.0599 56.1758 55.4707 56.3027 54.7871 56.3027C53.6999 56.3027 52.8503 55.9609 52.2383 55.2773C51.6328 54.5872 51.3301 53.5521 51.3301 52.1719V45.0332H54.7676V50.4727C54.7676 51.0391 54.7806 51.5013 54.8066 51.8594C54.8392 52.2174 54.9108 52.5202 55.0215 52.7676C55.1257 52.9954 55.2852 53.168 55.5 53.2852C55.7214 53.4023 56.0273 53.4609 56.418 53.4609C56.6589 53.4609 56.9421 53.4023 57.2676 53.2852C57.5996 53.168 57.9056 53.0085 58.1855 52.8066V45.0332H61.6035V56ZM70.2754 53.1387V50.8535C69.696 50.9121 69.2272 50.9642 68.8691 51.0098C68.5111 51.0488 68.1595 51.1302 67.8145 51.2539C67.515 51.3581 67.2806 51.5176 67.1113 51.7324C66.9486 51.9408 66.8672 52.2207 66.8672 52.5723C66.8672 53.0866 67.0039 53.4414 67.2773 53.6367C67.5573 53.8255 67.9674 53.9199 68.5078 53.9199C68.8073 53.9199 69.1133 53.8516 69.4258 53.7148C69.7383 53.5781 70.0215 53.3861 70.2754 53.1387ZM70.2754 54.8379C70.041 55.0332 69.8294 55.209 69.6406 55.3652C69.4583 55.5215 69.2109 55.6777 68.8984 55.834C68.5924 55.9837 68.293 56.0977 68 56.1758C67.7135 56.2539 67.3099 56.293 66.7891 56.293C65.819 56.293 65.0117 55.9674 64.3672 55.3164C63.7292 54.6654 63.4102 53.8451 63.4102 52.8555C63.4102 52.0417 63.5729 51.3841 63.8984 50.8828C64.224 50.3815 64.6927 49.9844 65.3047 49.6914C65.9232 49.3919 66.6621 49.1836 67.5215 49.0664C68.3809 48.9492 69.3053 48.8581 70.2949 48.793V48.7344C70.2949 48.1289 70.0703 47.7122 69.6211 47.4844C69.1784 47.25 68.5111 47.1328 67.6191 47.1328C67.2155 47.1328 66.7435 47.2077 66.2031 47.3574C65.6628 47.5007 65.1354 47.6862 64.6211 47.9141H64.3281V45.2676C64.6667 45.1699 65.2135 45.056 65.9688 44.9258C66.724 44.7891 67.4857 44.7207 68.2539 44.7207C70.1419 44.7207 71.5156 45.0365 72.375 45.668C73.2409 46.293 73.6738 47.25 73.6738 48.5391V56H70.2754V54.8379ZM86.4766 56H83.0391V50.5605C83.0391 50.1178 83.0195 49.6784 82.9805 49.2422C82.9479 48.7995 82.8828 48.474 82.7852 48.2656C82.668 48.0182 82.4987 47.8424 82.2773 47.7383C82.056 47.6276 81.7598 47.5723 81.3887 47.5723C81.1087 47.5723 80.8255 47.6243 80.5391 47.7285C80.2526 47.8327 79.9466 47.9987 79.6211 48.2266V56H76.2031V45.0332H79.6211V46.2441C80.181 45.7689 80.7246 45.3978 81.252 45.1309C81.7858 44.8639 82.375 44.7305 83.0195 44.7305C84.1393 44.7305 84.9954 45.0853 85.5879 45.7949C86.1803 46.498 86.4766 47.5202 86.4766 48.8613V56Z" fill="white"/>
</svg>
